<svg width="141" height="115" viewBox="0 0 141 115" fill="none" xmlns="http://www.w3.org/2000/svg">
<path d="M104.686 23.5272H42.6647C38.3831 23.5272 34.9121 26.9982 34.9121 31.2798V86.8401C34.9121 91.1218 38.3831 94.5927 42.6647 94.5927H104.686C108.967 94.5927 112.438 91.1218 112.438 86.8401V31.2798C112.438 26.9982 108.967 23.5272 104.686 23.5272Z" fill="#D1C1FF" stroke="#2C045D" stroke-width="1.62161" stroke-linecap="round" stroke-linejoin="round"/>
<path d="M104.686 23.5272H42.6647C38.3827 23.5272 34.9121 26.9978 34.9121 31.2798V42.9087H112.438V31.2798C112.438 26.9978 108.968 23.5272 104.686 23.5272Z" fill="#A77EFF" stroke="#2C045D" stroke-width="1.62161" stroke-linecap="round" stroke-linejoin="round"/>
<path d="M112.434 61.4844V86.8405C112.434 91.1226 108.963 94.5932 104.681 94.5932H79.3252C97.611 94.5932 112.434 79.7702 112.434 61.4844Z" fill="#2C045D" stroke="#2C045D" stroke-width="1.62161" stroke-linecap="round" stroke-linejoin="round"/>
<path d="M73.6715 34.8336C76.3476 34.8336 78.5169 32.6642 78.5169 29.9882C78.5169 27.3122 76.3476 25.1428 73.6715 25.1428C70.9955 25.1428 68.8262 27.3122 68.8262 29.9882C68.8262 32.6642 70.9955 34.8336 73.6715 34.8336Z" fill="#2C045D" stroke="#2C045D" stroke-width="1.62161" stroke-linecap="round" stroke-linejoin="round"/>
<path d="M54.2917 34.8336C56.9677 34.8336 59.137 32.6642 59.137 29.9882C59.137 27.3122 56.9677 25.1428 54.2917 25.1428C51.6156 25.1428 49.4463 27.3122 49.4463 29.9882C49.4463 32.6642 51.6156 34.8336 54.2917 34.8336Z" fill="#2C045D" stroke="#2C045D" stroke-width="1.62161" stroke-linecap="round" stroke-linejoin="round"/>
<path d="M76.9023 29.0193V19.6516C76.9023 18.2244 75.7454 17.0674 74.3181 17.0674H73.026C71.5988 17.0674 70.4418 18.2244 70.4418 19.6516V29.0193C70.4418 30.4465 71.5988 31.6035 73.026 31.6035H74.3181C75.7454 31.6035 76.9023 30.4465 76.9023 29.0193Z" fill="#F2EDFF" stroke="#2C045D" stroke-width="1.62161" stroke-linecap="round" stroke-linejoin="round"/>
<path d="M57.5215 29.0193V19.6516C57.5215 18.2244 56.3645 17.0674 54.9373 17.0674H53.6452C52.218 17.0674 51.061 18.2244 51.061 19.6516V29.0193C51.061 30.4465 52.218 31.6035 53.6452 31.6035H54.9373C56.3645 31.6035 57.5215 30.4465 57.5215 29.0193Z" fill="#F2EDFF" stroke="#2C045D" stroke-width="1.62161" stroke-linecap="round" stroke-linejoin="round"/>
<path d="M61.6236 82.6491C59.458 82.6491 57.6956 80.8866 57.6956 78.7211V63.6707C57.6956 63.5285 57.5457 63.5234 57.5431 63.5234C57.5121 63.5234 57.4863 63.5337 57.4553 63.557L56.4733 64.3503C55.8867 64.8258 55.1864 65.0765 54.4499 65.0765C52.659 65.0765 51.2041 63.6242 51.2041 61.8385C51.2041 60.8126 51.6977 59.8383 52.5246 59.231L58.7164 54.6828C59.458 54.1376 60.3367 53.8507 61.2566 53.8507C63.6238 53.8507 65.549 55.7759 65.549 58.1431V78.7236C65.549 80.8892 63.7866 82.6516 61.621 82.6516L61.6236 82.6491Z" fill="#F2EDFF" stroke="#2C045D" stroke-width="1.62161" stroke-miterlimit="10"/>
<path d="M72.0717 82.6493C70.0587 82.6493 68.4229 81.0109 68.4229 79.0004C68.4229 77.7109 69.1154 76.504 70.2266 75.8502L80.4213 69.8807C82.3078 68.7979 83.7911 67.8547 84.8377 67.0743C85.8274 66.3378 86.5278 65.6581 86.9231 65.056C87.2849 64.5056 87.4581 63.9371 87.4581 63.3194C87.4581 62.6656 87.2875 62.1049 86.9387 61.6087C86.5872 61.11 86.0393 60.7094 85.308 60.4174C84.5198 60.1021 83.4887 59.9419 82.2432 59.9419C80.7727 59.9419 79.5659 60.1512 78.6589 60.5621C77.7906 60.9549 77.1394 61.4795 76.7233 62.1204C76.5786 62.3426 76.452 62.5752 76.346 62.8129C75.7155 64.2368 74.3303 65.1568 72.8212 65.1568C71.312 65.1568 70.1388 64.4229 69.4488 63.1902C68.7691 61.9757 68.795 60.5466 69.5186 59.3656C69.7356 59.0142 69.976 58.6705 70.237 58.3423C71.5265 56.7297 73.2527 55.4686 75.3666 54.5978C77.4469 53.7398 79.8347 53.3057 82.4576 53.3057C85.0806 53.3057 87.1945 53.6985 89.0965 54.4711C91.0398 55.2619 92.5825 56.3938 93.686 57.8358C94.8127 59.3114 95.3838 61.0453 95.3838 62.9912C95.3838 64.4952 94.9884 65.9114 94.2106 67.2009C93.4586 68.4465 92.2621 69.6973 90.6573 70.9248C89.1016 72.1135 87.0213 73.4056 84.4707 74.7649L82.8995 75.6306C82.8659 75.6487 82.7988 75.6848 82.8272 75.796C82.8556 75.9071 82.9306 75.9071 82.9693 75.9071H92.7712C94.6292 75.9071 96.141 77.4188 96.141 79.2769C96.141 81.1349 94.6292 82.6467 92.7712 82.6467H72.0717V82.6493Z" fill="#F2EDFF" stroke="#2C045D" stroke-width="1.62161" stroke-miterlimit="10"/>
<path d="M33.3676 95.9851L2.50293 46.8893L21.0797 35.2107L51.9444 84.3065C52.6064 85.3596 52.998 86.5619 53.0802 87.8047L55.4775 106.262C55.754 108.384 53.4144 109.855 51.6221 108.686L36.0278 98.5249C34.9456 97.9108 34.0297 97.0381 33.3676 95.9851Z" fill="#B999FF" stroke="#2C045D" stroke-width="1.62161" stroke-linecap="round" stroke-linejoin="round"/>
<path d="M21.0813 35.211L27.7547 45.8263C29.1375 48.0258 26.0982 52.4217 20.9689 55.6463C15.8396 58.8709 10.5607 59.7043 9.17795 57.5049L2.5045 46.8896C1.12176 44.6901 4.16103 40.2942 9.29035 37.0695C14.4197 33.8449 19.6985 33.0115 21.0813 35.211Z" fill="#E1D7FF" stroke="#2C045D" stroke-width="1.62161" stroke-linecap="round" stroke-linejoin="round"/>
<path d="M21.0786 35.2102L18.4248 36.8785L51.7921 89.9551L51.9433 84.306L21.0786 35.2102Z" fill="#2C045D" stroke="#2C045D" stroke-width="1.62161" stroke-linecap="round" stroke-linejoin="round"/>
<path d="M27.7526 45.8261L31.0893 51.1337C32.472 53.3332 29.4328 57.7291 24.3034 60.9538C19.1741 64.1784 13.8952 65.0118 12.5125 62.8123L9.17578 57.5046C10.5585 59.7041 15.8374 58.8707 20.9667 55.6461C26.096 52.4215 29.1353 48.0256 27.7526 45.8261Z" fill="#F2EDFF" stroke="#2C045D" stroke-width="1.62161" stroke-linecap="round" stroke-linejoin="round"/>
<path d="M14.2954 45.031C19.4253 41.8061 22.4634 37.4095 21.0813 35.211C19.6992 33.0125 14.4202 33.8446 9.29035 37.0695C4.16051 40.2945 1.12238 44.6911 2.5045 46.8896C3.88662 49.0881 9.1656 48.256 14.2954 45.031Z" fill="#D1C1FF" stroke="#2C045D" stroke-width="1.62161" stroke-linecap="round" stroke-linejoin="round"/>
<path d="M51.6229 108.686C53.4153 109.855 55.7549 108.384 55.4784 106.262L53.0811 87.8044C52.9967 86.5629 51.7731 84.0323 51.1111 82.9793L50.0662 87.3389C49.5551 88.9902 48.5434 91.0184 46.833 90.7666L45.6279 90.5883C43.9182 90.333 42.2792 91.3634 41.766 93.0161L41.4043 94.1794C40.8933 95.8307 38.6256 95.8611 36.9139 95.6073L32.5322 94.6592C33.1942 95.7122 34.9422 97.9131 36.0265 98.5259L51.6208 108.687L51.6229 108.686Z" fill="#F2EDFF" stroke="#2C045D" stroke-width="1.62161" stroke-linecap="round" stroke-linejoin="round"/>
<path d="M54.3923 97.999L55.4678 106.269C55.7443 108.39 53.4046 109.861 51.6123 108.692L44.6782 104.174C46.3741 104.186 48.3947 103.588 50.3012 102.39C52.2077 101.191 53.6832 99.5615 54.3923 97.999Z" fill="#2C045D" stroke="#2C045D" stroke-width="1.62161" stroke-linecap="round" stroke-linejoin="round"/>
<path d="M136.455 23.6709C134.348 23.6709 132.471 22.3832 131.667 20.4353C131.658 20.4135 131.649 20.3936 131.64 20.3718C130.827 18.4203 131.237 16.1768 132.732 14.6823L135.238 12.1758L128.825 5.76269L126.319 8.26918C124.824 9.76365 122.581 10.1717 120.629 9.3592C120.607 9.35013 120.587 9.34106 120.566 9.33199C118.618 8.52854 117.33 6.65139 117.33 4.54391V1H108.262V4.54572C108.262 6.6532 106.974 8.53035 105.026 9.33381C105.004 9.34288 104.984 9.35194 104.963 9.36101C103.011 10.1735 100.768 9.76365 99.2731 8.271L96.7666 5.76451L90.3535 12.1776L92.86 14.6841C94.3545 16.1786 94.7625 18.4239 93.9518 20.3736C93.9428 20.3954 93.9337 20.4153 93.9246 20.4371C93.1212 22.385 91.244 23.6727 89.1365 23.6727H85.5908V32.741H89.1365C91.244 32.741 93.1212 34.0287 93.9246 35.9766C93.9337 35.9984 93.9428 36.0183 93.9518 36.0401C94.7643 37.9916 94.3545 40.2351 92.86 41.7296L90.3535 44.236L96.7666 50.6492L99.2731 48.1427C100.768 46.6482 103.011 46.2401 104.963 47.0527C104.984 47.0617 105.004 47.0708 105.026 47.0799C106.974 47.8833 108.262 49.7605 108.262 51.868V55.4137H117.33V51.868C117.33 49.7605 118.618 47.8833 120.566 47.0799C120.587 47.0708 120.607 47.0617 120.629 47.0527C122.581 46.2401 124.824 46.65 126.319 48.1427L128.825 50.6492L135.238 44.236L132.732 41.7296C131.237 40.2351 130.829 37.9898 131.64 36.0401C131.649 36.0183 131.658 35.9984 131.667 35.9766C132.471 34.0287 134.348 32.741 136.455 32.741H140.001V23.6727H136.455V23.6709ZM112.796 37.2734C107.788 37.2734 103.728 33.2126 103.728 28.205C103.728 23.1975 107.788 19.1367 112.796 19.1367C117.803 19.1367 121.864 23.1975 121.864 28.205C121.864 33.2126 117.803 37.2734 112.796 37.2734Z" fill="#F2EDFF" stroke="#2C045D" stroke-width="1.62161" stroke-linecap="round" stroke-linejoin="round"/>
<g style="mix-blend-mode:multiply">
<path d="M121.832 28.2051C121.832 33.2127 117.771 37.2735 112.764 37.2735C110.259 37.2735 107.992 36.2578 106.351 34.6183L93.5264 47.4427L96.7329 50.6493L99.2394 48.1428C100.734 46.6483 102.977 46.2403 104.929 47.0528C104.951 47.0619 104.971 47.0709 104.992 47.08C106.94 47.8834 108.228 49.7606 108.228 51.8681V55.4138H117.296V51.8681C117.296 49.7606 118.584 47.8834 120.532 47.08C120.554 47.0709 120.574 47.0619 120.595 47.0528C122.547 46.2403 124.79 46.6502 126.285 48.1428L128.791 50.6493L135.204 44.2362L132.698 41.7297C131.204 40.2352 130.795 37.9899 131.606 36.0402C131.615 36.0184 131.624 35.9985 131.633 35.9767C132.437 34.0288 134.314 32.7411 136.421 32.7411H139.967V23.6728H136.421C134.314 23.6728 132.437 22.3851 131.633 20.4372C131.624 20.4154 131.615 20.3955 131.606 20.3737C130.794 18.4222 131.204 16.1787 132.698 14.6842L135.204 12.1778L131.998 8.97119L119.173 21.7956C120.815 23.437 121.829 25.7041 121.829 28.2088L121.832 28.2051Z" fill="#B999FF"/>
</g>
<path d="M112.798 14.6027C105.286 14.6027 99.1953 20.693 99.1953 28.2052C99.1953 35.7174 105.286 41.8077 112.798 41.8077C120.31 41.8077 126.4 35.7174 126.4 28.2052C126.4 20.693 120.31 14.6027 112.798 14.6027ZM112.798 37.2735C107.79 37.2735 103.729 33.2127 103.729 28.2052C103.729 23.1976 107.79 19.1368 112.798 19.1368C117.805 19.1368 121.866 23.1976 121.866 28.2052C121.866 33.2127 117.805 37.2735 112.798 37.2735Z" fill="#F2EDFF"/>
<path d="M112.796 37.2735C117.804 37.2735 121.864 33.2135 121.864 28.2052C121.864 23.1969 117.804 19.1368 112.796 19.1368C107.788 19.1368 103.728 23.1969 103.728 28.2052C103.728 33.2135 107.788 37.2735 112.796 37.2735Z" stroke="#2C045D" stroke-width="1.62161" stroke-linecap="round" stroke-linejoin="round"/>
<path d="M112.798 14.6027C120.31 14.6027 126.4 20.693 126.4 28.2052C126.4 35.7174 120.31 41.8077 112.798 41.8077C105.286 41.8077 99.1953 35.7174 99.1953 28.2052" stroke="#2C045D" stroke-width="1.62161" stroke-linecap="round" stroke-linejoin="round"/>
<path d="M121.893 18.0848C124.105 20.5043 125.458 23.7253 125.458 27.2638C125.458 34.776 119.368 40.8663 111.856 40.8663C108.317 40.8663 105.096 39.5151 102.677 37.3006C105.163 40.0193 108.74 41.7242 112.715 41.7242C120.228 41.7242 126.318 35.6339 126.318 28.1217C126.318 24.1461 124.613 20.5714 121.894 18.083L121.893 18.0848Z" fill="#2C045D" stroke="#2C045D" stroke-width="1.62161" stroke-linecap="round" stroke-linejoin="round"/>
</svg>
