<svg xmlns="http://www.w3.org/2000/svg" width="140" height="104" viewBox="0 0 140 104" fill="none"><g opacity=".7"><path fill="#F2F2F2" d="M119.73 65.28H24.27a2.46 2.46 0 0 1-2.46-2.47V3.86a1.8 1.8 0 0 1 1.8-1.8h96.75a1.83 1.83 0 0 1 1.83 1.83v58.92a2.47 2.47 0 0 1-2.46 2.47Z"/><path fill="#fff" d="M116.25 61.79H27.28c-1.3 0-2.36-1-2.36-2.22V8.24c0-.91.78-1.65 1.75-1.65h90.16c.98 0 1.78.75 1.78 1.67v51.31c0 1.22-1.06 2.22-2.36 2.22Z"/><path fill="#CCC" d="M122.16 3.72H21.78V2.47A2.47 2.47 0 0 1 24.25 0h95.44a2.47 2.47 0 0 1 2.47 2.47v1.25Z"/><path fill="#fff" d="M26.26 2.5a.64.64 0 1 0 0-1.27.64.64 0 0 0 0 1.27ZM28.68 2.5a.64.64 0 1 0 0-1.27.64.64 0 0 0 0 1.27ZM31.1 2.5a.64.64 0 1 0 0-1.27.64.64 0 0 0 0 1.27Z"/><path fill="#CCC" d="M106.46 53.18H37.5a2.6 2.6 0 0 1-2.6-2.61v-33.3a1.96 1.96 0 0 1 1.94-1.94h70.23a1.98 1.98 0 0 1 1.98 1.98v33.26a2.62 2.62 0 0 1-2.6 2.61Zm-69.6-37.56a1.65 1.65 0 0 0-1.66 1.66v33.29a2.32 2.32 0 0 0 2.31 2.31h68.95a2.3 2.3 0 0 0 2.3-2.31V17.3a1.69 1.69 0 0 0-1.68-1.69H36.85Z"/><path fill="#F2F2F2" d="M39.9 50.57h64.17a2.38 2.38 0 0 0 2.39-2.39V20.35a2.39 2.39 0 0 0-2.39-2.39H39.9a2.38 2.38 0 0 0-2.38 2.4v27.82a2.39 2.39 0 0 0 2.38 2.39Z"/><path fill="#CCC" d="M47.18 26.06a1.34 1.34 0 1 0 0-2.68 1.34 1.34 0 0 0 0 2.68ZM47.18 31.13a1.34 1.34 0 1 0 0-2.68 1.34 1.34 0 0 0 0 2.68ZM47.18 36.2a1.34 1.34 0 1 0 0-2.68 1.34 1.34 0 0 0 0 2.69ZM47.18 41.28a1.34 1.34 0 1 0 0-2.68 1.34 1.34 0 0 0 0 2.68ZM97.98 24.87h-44.1a.15.15 0 0 1-.14-.15.15.15 0 0 1 .14-.15h44.1a.15.15 0 0 1 .15.15.15.15 0 0 1-.15.15ZM97.98 29.94h-44.1a.15.15 0 0 1-.14-.15.15.15 0 0 1 .14-.15h44.1a.15.15 0 0 1 0 .3ZM97.98 35.01h-44.1a.15.15 0 0 1 0-.3h44.1a.15.15 0 0 1 .15.15.15.15 0 0 1-.15.15ZM97.98 40.09h-44.1a.15.15 0 0 1-.14-.15.15.15 0 0 1 .14-.15h44.1a.15.15 0 0 1 .15.15.15.15 0 0 1-.15.15Z"/><path fill="#949494" d="M62.23 45.16H57.9a.75.75 0 0 1-.75-.75v-4.03a.75.75 0 0 1 .75-.74h4.32a.74.74 0 0 1 .74.74v4.03a.75.75 0 0 1-.74.75ZM71.9 45.16H67.6a.74.74 0 0 1-.75-.75v-9.1a.75.75 0 0 1 .75-.74h4.32a.74.74 0 0 1 .74.74v9.1a.75.75 0 0 1-.74.75ZM81.74 45.16h-4.32a.74.74 0 0 1-.74-.75V30.24a.75.75 0 0 1 .74-.75h4.32a.75.75 0 0 1 .75.75V44.4a.75.75 0 0 1-.75.75ZM91.87 45.16h-4.32a.74.74 0 0 1-.74-.75v-19.1a.75.75 0 0 1 .74-.74h4.32a.75.75 0 0 1 .74.75v19.1a.75.75 0 0 1-.74.74Z"/><path fill="#787C82" d="M97.98 45.16h-44.1a.15.15 0 0 1 0-.3h44.1a.15.15 0 0 1 .15.15.15.15 0 0 1-.15.15Z"/><path fill="#DCDCDE" d="M117.35 72.99a1.5 1.5 0 0 1 2.28-.26l4.73-2.45-.3 2.76-4.44 1.9a1.5 1.5 0 0 1-2.27-1.95Z"/><path fill="#C3C4C7" d="M121.42 74.01a.67.67 0 0 1-.23-.33l-.37-1.21a.67.67 0 0 1 .24-.73l3.83-2.9 4.15-7.72a2.17 2.17 0 0 1 3.58.25 2.17 2.17 0 0 1-.17 2.4l-2.36 5a6.91 6.91 0 0 1-3.5 3.38l-4.49 1.95a.67.67 0 0 1-.68-.09Z"/><path fill="#DCDCDE" d="M132.56 57.9a3.66 3.66 0 1 0-.01-7.32 3.66 3.66 0 0 0 0 7.32ZM131.07 102.3h-1.82l-.87-7.05h2.7v7.05Z"/><path fill="#787C82" d="M127.94 101.78h3.52V104h-5.74a2.24 2.24 0 0 1 1.37-2.05c.27-.11.56-.17.85-.17Z"/><path fill="#DCDCDE" d="M137.03 102.3h-1.83l-.87-7.05h2.7v7.05Z"/><path fill="#787C82" d="M133.9 101.78h3.52V104h-5.74a2.23 2.23 0 0 1 2.22-2.22ZM137.16 100.51h-2.14a.67.67 0 0 1-.65-.5l-3.08-11.44a.07.07 0 0 0-.03-.04.07.07 0 0 0-.1.02.07.07 0 0 0-.01.05l.62 10.85a.68.68 0 0 1-.44.67.68.68 0 0 1-.28.04l-2.41-.2a.67.67 0 0 1-.61-.6l-2.2-22.78.86.5 7.94-1.34 3.2 24.01c.01.1 0 .2-.03.28a.66.66 0 0 1-.36.42.68.68 0 0 1-.28.06Z"/><path fill="#C3C4C7" d="M128.5 78.98a4.9 4.9 0 0 1-2.5-.7.67.67 0 0 1-.3-.68c.27-1.72 1.73-10.5 3.06-15.3.54-1.95 1.74-3 3.56-3.12a5.06 5.06 0 0 1 5.27 4.65c.44 4.84-1.33 11.72-2.1 14.45a.67.67 0 0 1-1.06.34l-1.6-1.23a.52.52 0 0 0-.66.03 5.45 5.45 0 0 1-3.67 1.56Z"/><path fill="#787C82" d="m133.75 66.2 1.34 5.67-1.94 4.77 1.34-4.62-.74-5.82Z" opacity=".2"/><path fill="#787C82" d="M134.64 57.25c.33 0 .65-.05.95-.17l.4-.15a3.29 3.29 0 0 0 1.98-2.97 4.28 4.28 0 0 0-1.59-3.29 6.15 6.15 0 0 0-3.47-1.31c-1.36-.1-2.88.24-3.63 1.37-.2.3-.34.66-.23 1.02.04.11.1.21.19.29.34.3.67.07 1.02.05.47-.03.9.36 1.05.8.15.45.08.95-.04 1.4-.1.28-.16.57-.18.86a.86.86 0 0 0 .36.75c.3.18.68.08.98-.1.3-.18.55-.43.86-.56.33-.13.75-.1.94.2.06.1.1.21.12.33.16.76.13.72.3 1.48Z"/><path fill="#EEE" d="m128.97 97.18-22.9-7.99a1.57 1.57 0 0 1-.97-2l5.95-17.12a1.15 1.15 0 0 1 1.46-.7l23.69 8.25a1.17 1.17 0 0 1 .72 1.5l-5.95 17.1a1.58 1.58 0 0 1-2 .96Z"/><path fill="#fff" d="m108.02 88.2 20.03 7a1.52 1.52 0 0 0 1.94-.94l4.8-13.83a1.53 1.53 0 0 0-.93-1.94l-20.03-6.99a1.52 1.52 0 0 0-1.94.94l-4.81 13.83a1.55 1.55 0 0 0 .07 1.16 1.53 1.53 0 0 0 .87.78Z"/><path fill="#949494" d="m113.05 78.5-1-.35a.21.21 0 0 1-.12-.1.21.21 0 0 1 0-.17l.34-1a.21.21 0 0 1 .27-.13l1 .35a.22.22 0 0 1 .13.27l-.35 1a.22.22 0 0 1-.27.13Z"/><path fill="#787C82" d="m112.15 81.07-.99-.35a.21.21 0 0 1-.12-.1.21.21 0 0 1-.01-.17l.34-1a.21.21 0 0 1 .28-.13l.99.35a.22.22 0 0 1 .13.27l-.34 1a.22.22 0 0 1-.28.13Z"/><path fill="#CCC" d="m111.26 83.64-1-.34a.22.22 0 0 1-.13-.28l.35-.99a.22.22 0 0 1 .27-.13l1 .34c.05.02.1.06.12.11.02.06.02.11 0 .17l-.34 1a.22.22 0 0 1-.27.12ZM119.71 80.26l-4.78-1.66a.22.22 0 0 1-.14-.2l.01-.08a.2.2 0 0 1 .11-.12.22.22 0 0 1 .17 0l4.78 1.66a.2.2 0 0 1 .07.04.2.2 0 0 1 .07.15.21.21 0 0 1-.29.21ZM118.82 82.84l-4.78-1.67a.22.22 0 1 1 .14-.4l4.78 1.66.07.04a.21.21 0 0 1 .02.3.22.22 0 0 1-.23.06ZM117.92 85.41l-4.78-1.66a.22.22 0 1 1 .14-.41l4.78 1.67a.22.22 0 1 1-.14.4Z"/><path fill="#949494" d="m130.65 86.8.1-.25a4.52 4.52 0 0 0-2.78-5.74l-1.57 4.52 4.25 1.48Z"/><path fill="#787C82" d="m125.94 85.6 1.57-4.52a4.5 4.5 0 0 0-3.9 8.06 4.5 4.5 0 0 0 6.58-2.06l-4.25-1.48Z"/><path fill="#DCDCDE" d="M131.57 79.12a1.49 1.49 0 0 1 .99-1.54c.2-.07.42-.1.64-.08l2.22-4.84 1.46 2.35-2.32 4.24a1.5 1.5 0 0 1-3-.13Z"/><path fill="#C3C4C7" d="M135.4 77.41a.67.67 0 0 1-.38-.12l-1.05-.72a.68.68 0 0 1-.26-.73l1.23-4.65-1.49-8.63a2.16 2.16 0 1 1 4.32-.02l1.22 5.38a6.93 6.93 0 0 1-.67 4.83L136 77.06a.66.66 0 0 1-.43.33.66.66 0 0 1-.16.02ZM71.74 102.23h1.83l.87-7.06h-2.7v7.06Z"/><path fill="#787C82" d="M71.28 101.63h3.6a2.3 2.3 0 0 1 2.29 2.3v.07h-5.9v-2.37Z"/><path fill="#C3C4C7" d="M64.44 102.23h1.83l.87-7.06h-2.7v7.06Z"/><path fill="#787C82" d="M63.98 101.63h3.6a2.3 2.3 0 0 1 2.29 2.3v.07h-5.9v-2.37Z"/><path fill="#C3C4C7" d="M72.1 53.39a3.66 3.66 0 1 0 0-7.33 3.66 3.66 0 0 0 0 7.33Z"/><path fill="#949494" d="M74.57 100.7h-3.4a.67.67 0 0 1-.61-.42.67.67 0 0 1-.05-.25l.2-16.12a.22.22 0 0 0-.37-.18.22.22 0 0 0-.08.15l-1.97 16.23a.67.67 0 0 1-.67.6H64.2a.67.67 0 0 1-.67-.73l2.26-28.95h.06l10.82-1.18-1.43 30.22a.67.67 0 0 1-.67.63Z"/><path fill="#787C82" d="M65.92 72.8a.67.67 0 0 1-.66-.65c-.06-1.83-.16-8.16 1.01-12.81a6.1 6.1 0 0 1 5.63-4.6 6.13 6.13 0 0 1 6.04 3.88c1.98 5.03 3.85 11.23 1.52 12.2-3.05 1.27-11.1 1.84-13.5 1.98h-.04Z"/><path fill="#C3C4C7" d="m79.9 46.02.2.16-.4 7.4-1.59.81.92 2.58L82 55.79a1.2 1.2 0 0 0 .75-1.22l-.78-8.38a1.57 1.57 0 1 0-2.06-.17Z"/><path fill="#787C82" d="m79.74 53.85 1.12 3.2a.67.67 0 0 1-.5.88l-3.32.64A1.86 1.86 0 0 1 74.76 56c.21-.45.6-.79 1.06-.95l2.97-1.57a.67.67 0 0 1 .95.37Z"/><path fill="#C3C4C7" d="m64.06 46.02-.19.16.39 7.4 1.6.81-.92 2.58-2.97-1.18a1.2 1.2 0 0 1-.75-1.22L62 46.2a1.57 1.57 0 1 1 2.06-.17Z"/><path fill="#787C82" d="M64.62 53.44a.67.67 0 0 1 .55.04l2.98 1.57a1.86 1.86 0 0 1-1.23 3.52l-3.31-.64a.67.67 0 0 1-.5-.89l1.12-3.2a.67.67 0 0 1 .39-.4ZM73.53 50.35a2.41 2.41 0 0 1 1.35-2.27c1.1-.57 1.8-1.8 1.5-2.92-.4-1.43-2.34-2.36-3.92-1.87-.43.16-.84.35-1.23.58l-1.03.55c-.44.22-.87.47-1.27.75a4.22 4.22 0 0 0-1.68 3.96 5.65 5.65 0 0 0 2.46 3.7c.5.38 1.08.64 1.69.76.62.1 1.32-.02 1.77-.4.72-.61.65-1.63.41-2.48a1.8 1.8 0 0 1-.05-.36Z"/><path fill="#EEE" d="m39.77 76.87-23.35 9.6a1.63 1.63 0 0 1-2.14-.9L7.15 68.12a1.2 1.2 0 0 1 .65-1.57l24.14-9.92a1.22 1.22 0 0 1 1.6.67l7.13 17.43a1.64 1.64 0 0 1-.89 2.14Z"/><path fill="#fff" d="m17.26 84.35 20.42-8.4a1.59 1.59 0 0 0 .87-2.07L32.78 59.8a1.59 1.59 0 0 0-2.07-.86l-20.42 8.39a1.59 1.59 0 0 0-.87 2.07l5.78 14.09a1.59 1.59 0 0 0 2.06.87Z"/><path fill="#EEE" d="m32.66 63.64-.3.12.02.05.3-.12-.02-.05ZM31.78 64.06l-.6.25-.03-.05.6-.25.03.05Zm-1.21.5-.61.25-.02-.05.6-.25.03.05Zm-1.22.5-.6.24-.02-.05.6-.24.02.05Zm-1.21.5-.6.24-.03-.05.6-.25.03.05Zm-1.21.5-.61.24-.02-.05.6-.25.03.05Zm-1.22.49-.6.25-.02-.05.6-.25.02.05Zm-1.21.5-.6.25-.03-.05.6-.25.03.05Zm-1.21.5-.61.25-.02-.05.6-.25.03.05Zm-1.22.5-.6.24-.02-.05.6-.24.02.05Zm-1.2.5-.62.24-.02-.05.61-.25.02.05Zm-1.22.5-.6.24-.03-.05.6-.25.03.05Zm-1.22.5-.6.24-.02-.05.6-.25.02.05Zm-1.2.49-.62.25-.02-.05.61-.25.02.05Zm-1.22.5-.6.25-.03-.05.6-.25.03.05Zm-1.21.5-.61.25-.02-.05.6-.25.03.05Zm-1.22.5-.6.24-.02-.05.6-.25.02.05ZM12.35 71.98l-.3.13.02.05.3-.13-.02-.05ZM24.72 72.35l-.3.12.02.05.3-.12-.02-.05ZM23.84 72.77l-.6.24-.02-.05.6-.24.02.05Zm-1.2.49-.6.24-.01-.05.6-.24.01.05Zm-1.2.49-.59.24-.02-.05.6-.24.02.05Zm-1.19.49-.6.24-.01-.05.6-.24.01.05Zm-1.2.49-.59.24-.02-.05.6-.24.02.05Zm-1.19.49-.6.25-.01-.05.6-.25.01.05Zm-1.2.5-.59.24-.02-.05.6-.25.02.05Zm-1.19.48-.6.25-.01-.05.6-.25.01.05ZM14.26 76.64l-.3.13.02.05.3-.13-.02-.05ZM19.76 76.96l-.3.12.02.05.3-.12-.02-.05ZM18.87 77.38l-.62.26-.02-.05.62-.26.02.05Zm-1.23.5-.61.26-.03-.05.62-.25.02.05Zm-1.23.51-.61.26-.02-.05.61-.26.02.05ZM15.16 78.85l-.3.12.02.05.3-.12-.02-.05ZM21.3 80.72l-.3.12.03.05.3-.12-.02-.05ZM20.41 81.15l-.61.25-.02-.05.61-.25.02.05Zm-1.23.5-.61.25-.02-.05.61-.25.02.05Zm-1.23.5-.61.26-.02-.05.61-.25.02.05ZM16.7 82.61l-.3.12.02.05.3-.12-.02-.05Z"/><path fill="#949494" d="m18.13 82.13 17.3-7.11a1.71 1.71 0 0 0 .94-2.23l-3.5-8.54-.03.01-4.25 10.17-3.15-1.31a.4.4 0 0 0-.54.23l-2.23 5.33-2.3-.96a.41.41 0 0 0-.54.22l-1.7 4.19Z"/><path fill="#787C82" d="m18.08 82.2-.05-.01 1.78-4.27a.46.46 0 0 1 .6-.24l2.26.94 2.21-5.3a.46.46 0 0 1 .6-.25l3.1 1.3 4.27-10.22.05.02-4.29 10.28-3.15-1.33a.4.4 0 0 0-.53.22L22.7 78.7l-2.31-.96a.4.4 0 0 0-.53.21l-1.78 4.27ZM19.77 77.36a.38.38 0 1 0 0-.76.38.38 0 0 0 0 .76Z"/><path fill="#787C82" d="M24.73 72.75a.38.38 0 1 0 0-.76.38.38 0 0 0 0 .76ZM32.44 64.03a.38.38 0 1 0 0-.76.38.38 0 0 0 0 .76Z"/><path fill="#DCDCDE" d="M11.24 76.55a1.5 1.5 0 0 0 .54-2.24l1.13-11.01h-2.43l-.9 10.75a1.51 1.51 0 0 0 1.66 2.5ZM13.48 57.22a3.44 3.44 0 1 0-.01-6.88 3.44 3.44 0 0 0 0 6.88Z"/><path fill="#A7AAAD" d="M14.12 69.7a.63.63 0 0 1-.6-.45c-.28-1-1-2.7-2.13-5.04a4.18 4.18 0 1 1 7.71-3.1c.89 2.76.84 5.73.78 6.88a.63.63 0 0 1-.5.58l-5.12 1.12a.62.62 0 0 1-.14.02Z"/><path fill="#DCDCDE" d="M19.1 102.4h1.7l.82-6.63H19.1v6.63Z"/><path fill="#787C82" d="M24.12 104h-5.4v-2.09h3.31a2.08 2.08 0 0 1 2.09 2.09Z"/><path fill="#DCDCDE" d="m1.93 100.18 1.5.82 3.91-5.41-2.22-1.22-3.19 5.8Z"/><path fill="#787C82" d="m5.57 104-4.73-2.6 1-1.83 2.9 1.6a2.08 2.08 0 0 1 .83 2.83ZM19.01 98.72a.63.63 0 0 1-.62-.55l-2.15-16.56a.35.35 0 0 0-.65-.12L6.64 97.74a.63.63 0 0 1-.77.29l-1.95-.75a.63.63 0 0 1-.36-.83l6.2-15.24a.49.49 0 0 0 .03-.12c.84-6.5 2.97-9.81 3.6-10.67a.49.49 0 0 0 .07-.45l-.08-.26a.63.63 0 0 1 .12-.61c2.28-2.61 6.27-1.19 6.3-1.17h.03l.01.02c4.47 6.14 2.82 26.07 2.44 30a.63.63 0 0 1-.58.57l-2.64.2h-.05Z"/><path fill="#DCDCDE" d="M26.84 57.78c-.02.07-.03.15-.03.23l-6.02 3.47-1.46-.84-1.56 2.04 2.45 1.74a1.12 1.12 0 0 0 1.34-.03l6.2-4.9a1.47 1.47 0 0 0 1.8-2.07 1.47 1.47 0 0 0-2.72.36Z"/><path fill="#A7AAAD" d="m20.6 61.64-1.95 2.53a.63.63 0 0 1-.95.05l-2.2-2.29a1.75 1.75 0 0 1 2.14-2.77l2.76 1.55a.63.63 0 0 1 .2.93Z"/><path fill="#787C82" d="M14.02 52.98c.88.6 2.04 1.23 2.95.59a1.64 1.64 0 0 0 .53-1.9c-.43-1.24-1.61-1.78-2.75-2.2-1.48-.54-3.08-.97-4.6-.59-1.53.4-2.88 1.87-2.6 3.42.22 1.25 1.4 2.29 1.23 3.54C8.6 57.1 7.19 57.77 5.94 58c-1.25.22-2.66.3-3.56 1.2-1.14 1.14-.86 3.2.22 4.41 1.08 1.22 2.71 1.77 4.3 2.14 2.09.5 4.35.76 6.34-.07 1.99-.82 3.53-3.03 2.96-5.1-.25-.88-.82-1.63-1.37-2.35a6.52 6.52 0 0 1-1.33-2.36c-.17-.74-.04-1.6.44-2.14a.62.62 0 0 0 .09-.73l-.01-.02Z"/></g></svg>
