<svg width="90" height="82" viewBox="0 0 90 82" fill="none" xmlns="http://www.w3.org/2000/svg">
<path d="M82.05 6.33325H28.45C24.7497 6.33325 21.75 9.33294 21.75 13.0333V61.0499C21.75 64.7502 24.7497 67.7499 28.45 67.7499H82.05C85.7503 67.7499 88.75 64.7502 88.75 61.0499V13.0333C88.75 9.33294 85.7503 6.33325 82.05 6.33325Z" fill="#F2EDFF" stroke="#2C045D" stroke-width="1.5" stroke-linecap="round" stroke-linejoin="round"/>
<path d="M28.45 6.33325H82.05C85.7506 6.33325 88.75 9.33262 88.75 13.0333V20.2916H21.75V13.0333C21.75 9.33262 24.7494 6.33325 28.45 6.33325Z" fill="#B999FF" stroke="#2C045D" stroke-width="1.5" stroke-linecap="round" stroke-linejoin="round"/>
<path d="M88.7513 45.4167V61.0501C88.7513 64.7507 85.7519 67.7501 82.0513 67.7501H66.418C78.7527 67.7501 88.7513 57.7514 88.7513 45.4167Z" fill="#2C045D" stroke="#2C045D" stroke-width="1.5" stroke-linecap="round" stroke-linejoin="round"/>
<path d="M38.5 39.8333C40.8127 39.8333 42.6875 37.9584 42.6875 35.6458C42.6875 33.3331 40.8127 31.4583 38.5 31.4583C36.1873 31.4583 34.3125 33.3331 34.3125 35.6458C34.3125 37.9584 36.1873 39.8333 38.5 39.8333Z" fill="#B999FF" stroke="#2C045D" stroke-width="1.5" stroke-linecap="round" stroke-linejoin="round"/>
<path d="M55.25 39.8333C57.5627 39.8333 59.4375 37.9584 59.4375 35.6458C59.4375 33.3331 57.5627 31.4583 55.25 31.4583C52.9373 31.4583 51.0625 33.3331 51.0625 35.6458C51.0625 37.9584 52.9373 39.8333 55.25 39.8333Z" fill="#F2EDFF" stroke="#2C045D" stroke-width="1.5" stroke-linecap="round" stroke-linejoin="round"/>
<path d="M72 55.8843C74.3127 55.8843 76.1875 54.0095 76.1875 51.6968C76.1875 49.3841 74.3127 47.5093 72 47.5093C69.6873 47.5093 67.8125 49.3841 67.8125 51.6968C67.8125 54.0095 69.6873 55.8843 72 55.8843Z" fill="#F2EDFF" stroke="#2C045D" stroke-width="1.5" stroke-linecap="round" stroke-linejoin="round"/>
<path d="M38.5 55.8843C40.8127 55.8843 42.6875 54.0095 42.6875 51.6968C42.6875 49.3841 40.8127 47.5093 38.5 47.5093C36.1873 47.5093 34.3125 49.3841 34.3125 51.6968C34.3125 54.0095 36.1873 55.8843 38.5 55.8843Z" fill="#F2EDFF" stroke="#2C045D" stroke-width="1.5" stroke-linecap="round" stroke-linejoin="round"/>
<path d="M72 39.8333C74.3127 39.8333 76.1875 37.9584 76.1875 35.6458C76.1875 33.3331 74.3127 31.4583 72 31.4583C69.6873 31.4583 67.8125 33.3331 67.8125 35.6458C67.8125 37.9584 69.6873 39.8333 72 39.8333Z" fill="#B999FF" stroke="#2C045D" stroke-width="1.5" stroke-linecap="round" stroke-linejoin="round"/>
<path d="M55.25 56.5833C57.5627 56.5833 59.4375 54.7084 59.4375 52.3958C59.4375 50.0831 57.5627 48.2083 55.25 48.2083C52.9373 48.2083 51.0625 50.0831 51.0625 52.3958C51.0625 54.7084 52.9373 56.5833 55.25 56.5833Z" fill="#B999FF" stroke="#2C045D" stroke-width="1.5" stroke-linecap="round" stroke-linejoin="round"/>
<path d="M70.6055 6.33325V11.9166C70.6055 13.4576 71.8561 14.7083 73.3971 14.7083C74.9381 14.7083 76.1888 13.4576 76.1888 11.9166V6.33325H70.6055Z" fill="#2C045D" stroke="#2C045D" stroke-width="1.5" stroke-linecap="round" stroke-linejoin="round"/>
<path d="M53.8555 6.33325V11.9166C53.8555 13.4576 55.1061 14.7083 56.6471 14.7083C58.1881 14.7083 59.4388 13.4576 59.4388 11.9166V6.33325H53.8555Z" fill="#2C045D" stroke="#2C045D" stroke-width="1.5" stroke-linecap="round" stroke-linejoin="round"/>
<path d="M37.1055 6.33325V11.9166C37.1055 13.4576 38.3561 14.7083 39.8971 14.7083C41.4381 14.7083 42.6888 13.4576 42.6888 11.9166V6.33325H37.1055Z" fill="#2C045D" stroke="#2C045D" stroke-width="1.5" stroke-linecap="round" stroke-linejoin="round"/>
<path d="M69.207 3.54167V10.5208C69.207 12.0626 70.4569 13.3125 71.9987 13.3125C73.5405 13.3125 74.7904 12.0626 74.7904 10.5208V3.54167C74.7904 1.99987 73.5405 0.75 71.9987 0.75C70.4569 0.75 69.207 1.99987 69.207 3.54167Z" fill="#F2EDFF" stroke="#2C045D" stroke-width="1.5" stroke-linecap="round" stroke-linejoin="round"/>
<path d="M52.457 3.54167V10.5208C52.457 12.0626 53.7069 13.3125 55.2487 13.3125C56.7905 13.3125 58.0404 12.0626 58.0404 10.5208V3.54167C58.0404 1.99987 56.7905 0.75 55.2487 0.75C53.7069 0.75 52.457 1.99987 52.457 3.54167Z" fill="#F2EDFF" stroke="#2C045D" stroke-width="1.5" stroke-linecap="round" stroke-linejoin="round"/>
<path d="M35.707 3.54167V10.5208C35.707 12.0626 36.9569 13.3125 38.4987 13.3125C40.0405 13.3125 41.2904 12.0626 41.2904 10.5208V3.54167C41.2904 1.99987 40.0405 0.75 38.4987 0.75C36.9569 0.75 35.707 1.99987 35.707 3.54167Z" fill="#F2EDFF" stroke="#2C045D" stroke-width="1.5" stroke-linecap="round" stroke-linejoin="round"/>
<path d="M51.4006 59.0567C51.3953 58.9127 51.3899 58.7687 51.3819 58.6247C51.3766 58.5421 51.3713 58.4594 51.3659 58.3767C51.3579 58.246 51.3499 58.1154 51.3393 57.9847C51.3313 57.8967 51.3233 57.8087 51.3153 57.7207C51.3046 57.5954 51.2939 57.47 51.2806 57.3474C51.2699 57.2594 51.2619 57.1714 51.2513 57.0807C51.2379 56.958 51.2219 56.8354 51.2059 56.7127C51.1953 56.6247 51.1819 56.5367 51.1686 56.4487C51.1499 56.326 51.1339 56.2034 51.1126 56.0807C51.0993 55.9954 51.0833 55.9074 51.0699 55.8221C51.0486 55.6994 51.0273 55.5767 51.0033 55.4541C50.9873 55.3714 50.9713 55.286 50.9553 55.2034C50.9313 55.078 50.9046 54.9527 50.8779 54.8301C50.8619 54.7501 50.8433 54.6727 50.8273 54.5927C50.7979 54.4621 50.7686 54.334 50.7366 54.2034C50.7179 54.1314 50.7019 54.0594 50.6833 53.9874C50.6486 53.8487 50.6113 53.7127 50.5739 53.5767C50.5579 53.5127 50.5393 53.4514 50.5233 53.3874C50.4806 53.2354 50.4353 53.0834 50.3899 52.934C50.3766 52.8887 50.3633 52.8407 50.3473 52.7954C50.2886 52.6061 50.2273 52.4167 50.1659 52.2274C50.1659 52.2221 50.1633 52.214 50.1606 52.2087C49.9579 51.606 49.7339 51.0167 49.4859 50.438C49.4779 50.422 49.4726 50.4061 49.4646 50.3901C49.3899 50.2167 49.3126 50.0434 49.2353 49.8727C49.2219 49.8434 49.2086 49.8167 49.1953 49.7874C49.1206 49.6274 49.0459 49.47 48.9686 49.31C48.9526 49.278 48.9366 49.246 48.9206 49.214C48.8459 49.062 48.7686 48.9074 48.6886 48.7581C48.6699 48.7234 48.6539 48.6914 48.6353 48.6594C48.5553 48.5074 48.4753 48.358 48.3926 48.2114C48.3739 48.1794 48.3579 48.1474 48.3393 48.118C48.2539 47.966 48.1686 47.8167 48.0806 47.6674C48.0646 47.6407 48.0486 47.6141 48.0326 47.5874C47.9393 47.4327 47.8459 47.2781 47.7499 47.1261C47.7366 47.1047 47.7259 47.0861 47.7126 47.0647C47.6113 46.9021 47.5073 46.742 47.4006 46.582C47.3953 46.5714 47.3873 46.5607 47.3819 46.5527C46.2273 44.8167 44.8539 43.2407 43.3019 41.8594C39.0326 38.0647 33.4113 35.7581 27.2513 35.7581C21.9579 35.7581 17.0646 37.4594 13.0859 40.3447V59.4247C13.0859 63.8434 16.6673 67.4247 21.0859 67.4247H50.2273C50.2619 67.3207 50.2993 67.2167 50.3339 67.11C50.6273 66.1634 50.8646 65.1927 51.0433 64.2007C51.1153 63.8034 51.1766 63.4034 51.2273 63.0007C51.3553 61.9927 51.4219 60.9661 51.4219 59.9234C51.4219 59.7074 51.4193 59.4914 51.4139 59.2754C51.4139 59.2034 51.4086 59.1341 51.4059 59.0621L51.4006 59.0567Z" fill="#2C045D" stroke="#2C045D" stroke-width="1.5" stroke-linecap="round" stroke-linejoin="round"/>
<path d="M24.25 80.75C37.2287 80.75 47.75 70.2287 47.75 57.25C47.75 44.2713 37.2287 33.75 24.25 33.75C11.2713 33.75 0.75 44.2713 0.75 57.25C0.75 70.2287 11.2713 80.75 24.25 80.75Z" fill="#D1C1FF" stroke="#2C045D" stroke-width="1.5" stroke-linecap="round" stroke-linejoin="round"/>
<path d="M12.864 45.9455C14.8621 43.9474 15.8619 41.7076 15.0972 40.9429C14.3324 40.1781 12.0926 41.1779 10.0945 43.176C8.09636 45.1741 7.09654 47.4139 7.86131 48.1787C8.62609 48.9435 10.8659 47.9436 12.864 45.9455Z" fill="#F2EDFF"/>
<path d="M33.5816 66.0003C32.8549 65.8375 32.2334 65.401 31.8342 64.7713L31.7693 64.6689C31.0757 63.5747 31.2207 62.1585 32.1245 61.2297C32.9806 60.3477 33.5641 59.2357 33.8043 58.013C34.4728 54.6373 32.2073 51.2592 28.7513 50.4815C29.0466 51.0779 29.1147 51.7685 28.9363 52.4141C28.7331 53.1554 28.2223 53.7771 27.5361 54.1265C26.9874 54.4055 26.3521 54.4826 25.7411 54.3457C25.0112 54.1822 24.3612 53.7225 23.9594 53.0888L20.5811 47.7595C19.7752 46.4881 20.1541 44.7968 21.4255 43.9908L26.8178 40.5726C27.4318 40.1833 28.1633 40.0534 28.8772 40.2134C29.6746 40.392 30.3446 40.9136 30.7175 41.6456C31.2721 42.7424 30.9824 44.0958 30.0667 44.9273C36.508 46.428 40.6155 52.5724 39.4302 58.9628C38.9868 61.3489 37.8664 63.5158 36.1825 65.2289C35.504 65.9211 34.5316 66.2064 33.583 65.9939L33.5816 66.0003Z" fill="#F2EDFF" stroke="#2C045D" stroke-width="1.5"/>
<path d="M19.6255 74.6099C18.828 74.4313 18.1581 73.9097 17.7851 73.1778C17.2298 72.0842 17.5202 70.7275 18.436 69.896C11.9946 68.3954 7.88714 62.2509 9.07242 55.8605C9.51586 53.4744 10.6362 51.3075 12.3202 49.5945C12.9987 48.9022 13.971 48.6169 14.9196 48.8295C15.6463 48.9923 16.2678 49.4287 16.667 50.0585L16.7319 50.1608C17.4255 51.255 17.2805 52.6712 16.3767 53.6C15.5206 54.4821 14.9403 55.5948 14.6969 56.8167C14.0284 60.1925 16.2939 63.5705 19.7499 64.3482C19.4546 63.7519 19.3865 63.0612 19.5656 62.4125C19.7689 61.6712 20.2796 61.0494 20.9658 60.7C21.5145 60.4211 22.1498 60.3439 22.7608 60.4808C23.4907 60.6444 24.1408 61.1041 24.5425 61.7378L27.9208 67.0671C28.3133 67.6818 28.4392 68.4158 28.28 69.1265C28.1208 69.8371 27.6944 70.444 27.0765 70.8357L21.6841 74.254C21.0701 74.6432 20.3386 74.7731 19.6248 74.6132L19.6255 74.6099Z" fill="#B999FF" stroke="#2C045D" stroke-width="1.5"/>
<path d="M39.9257 39.75C43.6168 43.9001 45.8587 49.3662 45.8587 55.3587C45.8587 68.337 35.3369 78.8587 22.3587 78.8587C16.3677 78.8587 10.9017 76.6153 6.75 72.9258C11.0552 77.7668 17.3281 80.8171 24.317 80.8171C37.2953 80.8171 47.817 70.2953 47.817 57.317C47.817 50.3297 44.7667 44.0552 39.9257 39.75Z" fill="#2C045D" stroke="#2C045D" stroke-width="1.5" stroke-linecap="round" stroke-linejoin="round"/>
</svg>
